<svg width="1440" height="413" viewBox="0 0 1440 413" fill="none" xmlns="http://www.w3.org/2000/svg">
<path d="M869.031 237.516C507.65 261.838 241.231 -72.416 21.0076 80.9619C-199.216 234.34 -234.992 -56.9254 -226.992 100.417C-218.993 257.76 -178.992 368.417 -178.992 368.417C-178.992 368.417 -140.992 466.53 -1.99248 368.417C137.008 270.305 213.187 260.962 353.008 260.962C621.893 260.962 760.137 532.545 1081.77 206.231C1274.44 10.7576 1346.65 86.3598 1551.01 112.962V24.9618C1119.61 -87.1268 1230.41 213.194 869.031 237.516Z" fill="url(#paint0_linear)"/>
<path d="M869.031 237.516C507.65 261.838 241.231 -72.416 21.0076 80.9619C-199.216 234.34 -234.992 -56.9254 -226.992 100.417C-218.993 257.76 -178.992 368.417 -178.992 368.417C-178.992 368.417 -140.992 466.53 -1.99248 368.417C137.008 270.305 213.187 260.962 353.008 260.962C621.893 260.962 760.137 532.545 1081.77 206.231C1274.44 10.7576 1346.65 86.3598 1551.01 112.962V24.9618C1119.61 -87.1268 1230.41 213.194 869.031 237.516Z" fill="url(#paint1_linear)"/>
<defs>
<linearGradient id="paint0_linear" x1="1438.01" y1="-229.269" x2="-1.46196" y2="193.022" gradientUnits="userSpaceOnUse">
<stop offset="0.572917" stop-color="#15C0C0"/>
<stop offset="1" stop-color="#1565C0"/>
</linearGradient>
<linearGradient id="paint1_linear" x1="110.398" y1="42.0425" x2="964.894" y2="355.687" gradientUnits="userSpaceOnUse">
<stop stop-opacity="0.05"/>
<stop offset="0.947917" stop-color="white" stop-opacity="0"/>
</linearGradient>
</defs>
</svg>
