<svg width="22" height="28" viewBox="0 0 22 28" fill="none" xmlns="http://www.w3.org/2000/svg">
<g filter="url(#filter0_d)">
<path d="M1.18219 10.7338C0.671368 11.738 1.25135 12.2179 2.57466 13.0379C3.69963 13.7329 5.25376 13.9871 6.25207 14.0887C5.84292 14.4821 7.71787 12.6788 2.318 17.8728C1.17302 18.9703 3.01631 20.7311 4.16045 19.6569L7.25788 16.6695C8.44369 17.8103 9.58033 18.9036 10.3553 19.6611C11.5003 20.7394 13.3427 18.9936 12.2103 17.877C12.1253 17.7962 8.01287 13.8512 8.26369 14.0929C9.2745 13.9912 10.8053 13.7221 11.9169 13.0421L11.9161 13.0413C13.2394 12.2171 13.8194 11.738 13.3161 10.7338C13.0119 10.1638 12.1919 9.68717 11.1003 10.5113C11.1003 10.5113 9.62616 11.6405 7.24872 11.6405C4.87044 11.6405 3.39714 10.5113 3.39714 10.5113C2.30633 9.68301 1.48302 10.1638 1.18219 10.7338Z" fill="black"/>
<path d="M7.24716 10.1181C10.1454 10.1181 12.512 7.85315 12.512 5.06488C12.512 2.26495 10.1454 0 7.24716 0C4.34806 0 1.98145 2.26495 1.98145 5.06488C1.98145 7.85315 4.34806 10.1181 7.24716 10.1181ZM7.24716 2.56577C8.67129 2.56577 9.83293 3.68325 9.83293 5.06488C9.83293 6.43485 8.67129 7.55233 7.24716 7.55233C5.82302 7.55233 4.66138 6.43485 4.66138 5.06488C4.66055 3.68242 5.82219 2.56577 7.24716 2.56577Z" fill="black"/>
</g>
<defs>
<filter id="filter0_d" x="0.998047" y="0" width="20.4979" height="27.9995" filterUnits="userSpaceOnUse" color-interpolation-filters="sRGB">
<feFlood flood-opacity="0" result="BackgroundImageFix"/>
<feColorMatrix in="SourceAlpha" type="matrix" values="0 0 0 0 0 0 0 0 0 0 0 0 0 0 0 0 0 0 127 0"/>
<feOffset dx="4" dy="4"/>
<feGaussianBlur stdDeviation="2"/>
<feColorMatrix type="matrix" values="0 0 0 0 0 0 0 0 0 0 0 0 0 0 0 0 0 0 0.25 0"/>
<feBlend mode="normal" in2="BackgroundImageFix" result="effect1_dropShadow"/>
<feBlend mode="normal" in="SourceGraphic" in2="effect1_dropShadow" result="shape"/>
</filter>
</defs>
</svg>
