<svg width="28" height="20" viewBox="0 0 28 20" fill="none" xmlns="http://www.w3.org/2000/svg">
<g filter="url(#filter0_d)">
<path d="M16.5951 6.68987C16.2718 6.28153 16.3643 6.09986 16.5951 5.73485C16.5993 5.73069 19.2685 2.04229 19.5435 0.791436L19.5452 0.790602C19.6819 0.334761 19.5452 -0.000244141 18.8843 -0.000244141H16.6976C16.141 -0.000244141 15.8843 0.287261 15.7468 0.608933C15.7468 0.608933 14.6334 3.27398 13.0584 5.00151C12.5501 5.50068 12.3151 5.66068 12.0376 5.66068C11.9009 5.66068 11.6884 5.50068 11.6884 5.04484V0.790602C11.6884 0.243927 11.5325 -0.000244141 11.0717 -0.000244141H7.63332C7.28415 -0.000244141 7.07664 0.25476 7.07664 0.492264C7.07664 1.01061 7.86416 1.12977 7.94582 2.58813V5.75235C7.94582 6.4457 7.81999 6.5732 7.54082 6.5732C6.79747 6.5732 4.99327 3.89732 3.92409 0.83477C3.70825 0.240593 3.49742 0.000589146 2.93657 0.000589146H0.749036C0.124859 0.000589146 -0.000976562 0.288094 -0.000976562 0.609766C-0.000976562 1.17811 0.742369 4.00399 3.45575 7.73739C5.26411 10.2858 7.81082 11.6666 10.1275 11.6666C11.5201 11.6666 11.6901 11.3599 11.6901 10.8324C11.6901 8.3974 11.5642 8.16739 12.2617 8.16739C12.5851 8.16739 13.1417 8.3274 14.4418 9.55658C15.9276 11.0141 16.1718 11.6666 17.0035 11.6666H19.1902C19.8135 11.6666 20.1294 11.3599 19.9477 10.7549C19.5319 9.48242 16.7218 6.86487 16.5951 6.68987Z" fill="black"/>
</g>
<defs>
<filter id="filter0_d" x="-0.000976562" y="-0.000244141" width="27.9996" height="19.6669" filterUnits="userSpaceOnUse" color-interpolation-filters="sRGB">
<feFlood flood-opacity="0" result="BackgroundImageFix"/>
<feColorMatrix in="SourceAlpha" type="matrix" values="0 0 0 0 0 0 0 0 0 0 0 0 0 0 0 0 0 0 127 0"/>
<feOffset dx="4" dy="4"/>
<feGaussianBlur stdDeviation="2"/>
<feColorMatrix type="matrix" values="0 0 0 0 0 0 0 0 0 0 0 0 0 0 0 0 0 0 0.25 0"/>
<feBlend mode="normal" in2="BackgroundImageFix" result="effect1_dropShadow"/>
<feBlend mode="normal" in="SourceGraphic" in2="effect1_dropShadow" result="shape"/>
</filter>
</defs>
</svg>
