 <svg width="1500px" height="450px" className="main-blue-wave">
    <path id="wave"
        d="M84.0073 371.417  C223.007 273.304 239.68 240.516 379.5  240.516 C518.11  240.516 635.522 312.261  762  340.512  C880.873 367.065 1007.75 355.196 1167.77 209.231 C1296.12 92.1482 1439 30.2537 1532.5 83.9618 L1559.5 27.9618  C1352.38 -91.1791 1253.44 220.433 955.032 240.516 C788.643 251.714 642.386 186.899 511.5  128.662 C358.112  60.4143 253.5   3.29195 117.5   83.9618           C11.2857 146.964 -95.5 164.5 -187.5 83.9618 C-277.216 5.42314 -412   35.5  -448 83.9618 C-484.001 132.424 -522.5 260.012 -448   340.512 C-373.501 421.012 -292.599 281.513 -220.5 371.417 C-165.5 440 20.7463 416.07  84.0073 371.417Z;"
        stroke="blue"
        stroke-width="0" 
        fill="url(#waveColor)"
    />
    <defs>
        <lineargradient id="waveColor" x1="1438.01" y1="-229.269" x2="-1.46196" y2="193.022" gradientunits="userSpaceOnUse">
        <stop offset="0.1" stop-color="#00f0e4"/>
        <stop offset="1" stop-color="#1059ad"/>
        </lineargradient>
    </defs>
    <animate 
        xlinkHref="#wave"
        attributename="d"
        attributetype="XML"
        repeatcount="indefinite"
        dur="1s"
        values=" 
            M84.0073 371.417  C223.007 273.304 239.68 240.516 379.5  240.516 C518.11  240.516 635.522 312.261  762  340.512  C880.873 367.065 1007.75 355.196 1167.77 209.231 C1296.12 92.1482 1439 30.2537 1532.5 83.9618 L1559.5 27.9618  C1352.38 -91.1791 1253.44 220.433 955.032 240.516 C788.643 251.714 642.386 186.899 511.5  128.662 C358.112  60.4143 253.5   3.29195 117.5   83.9618           C11.2857 146.964 -95.5 164.5 -187.5 83.9618 C-277.216 5.42314 -412   35.5  -448 83.9618 C-484.001 132.424 -522.5 260.012 -448   340.512 C-373.501 421.012 -292.599 281.513 -220.5 371.417 C-165.5 440 20.7463 416.07  84.0073 371.417Z;
            M758.5 338C933.5 379 1060 305 1163.5 212C1211.91 168.5 1412 -14.9999 1576 102.5C1671 165 1746.6 112 1792 112C1868.5 112 1896 167 1959.5 149L1950.5 50.5C1867 10.5 1837.23 64.648 1803 70.5C1706.5 87 1655.08 78.9013 1604 47.0002C1453 -47.3104 1377 14.0001 1250 112C1051 267.5 873 284 573 155C-17.4998 -138 311.5 252 -408 122C-337.5 240 -496 281 -206.5 342C99.5 530.5 114 239 353 240C501 232 622 304 758.5 338Z
        "
    />
</svg>