<svg width="580" height="267" viewBox="0 0 580 267" fill="none" xmlns="http://www.w3.org/2000/svg">
<mask id="mask0" mask-type="alpha" maskUnits="userSpaceOnUse" x="0" y="0" width="580" height="267">
<rect width="580" height="267" fill="#C4C4C4"/>
</mask>
<g mask="url(#mask0)">
<path d="M-283.953 373.712C-474.797 391.442 -461.814 516.718 -461.814 516.718L-427.403 477.006C-427.403 477.006 -328.797 578.866 -155.07 403.39C-2.43646 249.22 79.2637 195.112 211.947 163.656C404.242 118.067 490.906 250.356 688.542 207.97C920.008 158.329 1094.5 5.3548 1094.5 5.3548L1039.3 -332C1039.3 -332 871.934 -141.541 640.468 5.3548C448.769 127.014 237.723 -41.5614 65.0139 88.1126C-128.803 233.635 -73.1064 354.124 -283.953 373.712Z" fill="url(#paint0_linear)"/>
<path d="M-283.953 373.712C-474.797 391.442 -461.814 516.718 -461.814 516.718L-427.403 477.006C-427.403 477.006 -328.797 578.866 -155.07 403.39C-2.43646 249.22 79.2637 195.112 211.947 163.656C404.242 118.067 490.906 250.356 688.542 207.97C920.008 158.329 1094.5 5.3548 1094.5 5.3548L1039.3 -332C1039.3 -332 871.934 -141.541 640.468 5.3548C448.769 127.014 237.723 -41.5614 65.0139 88.1126C-128.803 233.635 -73.1064 354.124 -283.953 373.712Z" fill="url(#paint1_linear)"/>
</g>
<defs>
<linearGradient id="paint0_linear" x1="1073.13" y1="-238.797" x2="-538.796" y2="470.272" gradientUnits="userSpaceOnUse">
<stop offset="0.21481" stop-color="#FFD337"/>
<stop offset="0.645833" stop-color="#F23954"/>
<stop offset="0.970157" stop-color="#FF28C3"/>
</linearGradient>
<linearGradient id="paint1_linear" x1="-278.274" y1="385.258" x2="366.54" y2="632.046" gradientUnits="userSpaceOnUse">
<stop stop-opacity="0.26"/>
<stop offset="1" stop-color="white" stop-opacity="0"/>
</linearGradient>
</defs>
</svg>
