<svg width="28" height="28" viewBox="0 0 28 28" fill="none" xmlns="http://www.w3.org/2000/svg">
<g filter="url(#filter0_d)">
<path d="M10.0032 4.8645C7.16737 4.8645 4.87158 7.16279 4.87158 9.99608C4.87158 12.8319 7.16987 15.1277 10.0032 15.1277C12.8389 15.1277 15.1347 12.8294 15.1347 9.99608C15.1347 7.1603 12.8364 4.8645 10.0032 4.8645ZM10.0032 13.3269C8.16236 13.3269 6.67238 11.836 6.67238 9.99608C6.67238 8.15611 8.16319 6.6653 10.0032 6.6653C11.8431 6.6653 13.3339 8.15611 13.3339 9.99608C13.3348 11.836 11.844 13.3269 10.0032 13.3269Z" fill="black"/>
<path d="M14.1233 0.0628211C12.2833 -0.0230107 7.72589 -0.0188441 5.88425 0.0628211C4.26595 0.138653 2.83847 0.529479 1.68766 1.68029C-0.23564 3.60359 0.0101892 6.19521 0.0101892 9.99598C0.0101892 13.8859 -0.206474 16.4175 1.68766 18.3117C3.61846 20.2416 6.24758 19.9891 10.0033 19.9891C13.8566 19.9891 15.1866 19.9916 16.5491 19.4641C18.4015 18.745 19.7998 17.0892 19.9365 14.1151C20.0232 12.2743 20.0182 7.71769 19.9365 5.87605C19.7715 2.36528 17.8874 0.236151 14.1233 0.0628211ZM17.0357 17.0392C15.7749 18.3 14.0258 18.1875 9.97918 18.1875C5.81259 18.1875 4.14178 18.2492 2.92264 17.0267C1.5185 15.6292 1.77266 13.3851 1.77266 9.98265C1.77266 5.37856 1.30017 2.06279 5.92092 1.82612C6.98257 1.78862 7.29506 1.77612 9.96751 1.77612L10.005 1.80112C14.4458 1.80112 17.9299 1.33613 18.139 5.95605C18.1865 7.0102 18.1974 7.32686 18.1974 9.99515C18.1965 14.1134 18.2749 15.7942 17.0357 17.0392Z" fill="black"/>
<path d="M15.3383 5.86118C16.0006 5.86118 16.5375 5.32431 16.5375 4.66204C16.5375 3.99977 16.0006 3.46289 15.3383 3.46289C14.676 3.46289 14.1392 3.99977 14.1392 4.66204C14.1392 5.32431 14.676 5.86118 15.3383 5.86118Z" fill="black"/>
</g>
<defs>
<filter id="filter0_d" x="0" y="0" width="27.9996" height="28" filterUnits="userSpaceOnUse" color-interpolation-filters="sRGB">
<feFlood flood-opacity="0" result="BackgroundImageFix"/>
<feColorMatrix in="SourceAlpha" type="matrix" values="0 0 0 0 0 0 0 0 0 0 0 0 0 0 0 0 0 0 127 0"/>
<feOffset dx="4" dy="4"/>
<feGaussianBlur stdDeviation="2"/>
<feColorMatrix type="matrix" values="0 0 0 0 0 0 0 0 0 0 0 0 0 0 0 0 0 0 0.25 0"/>
<feBlend mode="normal" in2="BackgroundImageFix" result="effect1_dropShadow"/>
<feBlend mode="normal" in="SourceGraphic" in2="effect1_dropShadow" result="shape"/>
</filter>
</defs>
</svg>
